<?xml version="1.0" standalone="no"?>
<!DOCTYPE svg PUBLIC "-//W3C//DTD SVG 20010904//EN"
 "http://www.w3.org/TR/2001/REC-SVG-20010904/DTD/svg10.dtd">
<svg version="1.0" xmlns="http://www.w3.org/2000/svg"
 width="240.000000pt" height="240.000000pt" viewBox="0 0 240.000000 240.000000"
 preserveAspectRatio="xMidYMid meet">
<metadata>
Created by potrace 1.14, written by Peter Selinger 2001-2017
</metadata>
<g transform="translate(0.000000,240.000000) scale(0.100000,-0.100000)"
fill="#000000" stroke="none">
<path d="M0 1200 l0 -1200 1200 0 1200 0 0 1200 0 1200 -1200 0 -1200 0 0
-1200z m1764 579 c3 -17 6 -49 6 -69 0 -37 -3 -40 -67 -75 -61 -34 -67 -35
-76 -19 -46 83 -216 143 -281 100 l-26 -16 -2 -197 -3 -197 -95 -77 c-52 -43
-98 -78 -102 -78 -5 -1 -8 122 -8 272 0 149 -4 278 -9 286 -14 21 -92 25 -154
7 -72 -21 -120 -63 -158 -139 -25 -48 -58 -162 -59 -199 0 -5 -18 -8 -39 -8
-22 0 -42 3 -44 8 -3 4 1 97 9 207 7 110 13 206 14 213 0 9 116 12 544 12
l544 0 6 -31z m46 -234 c0 -6 -28 -41 -63 -78 -44 -48 -69 -67 -87 -67 -17 0
-73 -39 -175 -121 -82 -67 -187 -151 -232 -187 -46 -36 -83 -71 -83 -76 0 -6
7 -19 15 -30 13 -17 17 -16 72 29 l58 48 5 -186 c3 -102 8 -189 12 -192 11
-11 87 -24 146 -25 l52 0 0 -40 0 -40 -312 2 -313 3 0 35 0 35 89 7 c49 4 95
13 102 19 10 8 14 40 14 115 0 93 2 105 20 116 30 19 24 28 -10 17 -35 -13
-87 -69 -96 -104 -5 -19 -160 -155 -269 -236 -32 -24 -146 59 -161 117 -6 22
0 32 37 64 128 108 236 190 253 190 11 0 40 10 64 22 33 15 49 31 61 59 22 52
43 63 79 42 l29 -17 179 145 c234 188 286 234 299 264 6 16 41 45 90 74 l80
49 23 -21 c12 -11 22 -25 22 -32z"/>
</g>
</svg>
